<?xml version="1.0" encoding="utf-8"?>
<!-- Designed by Vexels.com - 2016 All Rights Reserved - https://vexels.com/terms-and-conditions/  -->

<svg version="1.1" id="Layer_1" xmlns="http://www.w3.org/2000/svg" xmlns:xlink="http://www.w3.org/1999/xlink" x="0px" y="0px"
	 width="1200px" height="1200px" viewBox="0 0 1200 1200" enable-background="new 0 0 1200 1200" xml:space="preserve">
<path fill="#222232" d="M1014.404,299.3c-0.613-2.538,1.263-6.285,1.263-6.285c32.615-3.752,28.215-11.286,28.215-11.286
	c2.525-11.305-31.979-2.49-31.979-2.49c-10.655-2.531-33.241,2.49-33.241,2.49c-3.752-2.515-33.264-43.914-33.264-43.914
	c0-8.154-24.461-47.029-24.461-47.029c-20.685-44.539-61.456-28.231-61.456-28.231c-6.902-5.033-36.379,0-36.379,0
	c-4.402-1.883,3.15-7.523,3.15-7.523c6.266-1.263,13.145-16.928,13.145-16.928c-3.752,3.121-5.64-1.906-5.64-1.906
	c-8.779-5.64,3.753-18.821,3.753-18.821c5.663,1.893,10.03-9.404,10.03-9.404c-6.242,2.519-6.266-6.915-6.266-6.915
	c1.275,5.039,6.927-0.614,6.927-0.614c-4.402-5.002,2.477-11.924,2.477-11.924c6.927-56.452-52.05-31.347-52.05-31.347
	c-59.579-23.855-69.644,19.435-69.644,19.435c-6.277-1.889-11.918,29.488-11.918,29.488c-3.752,1.263-21.322,14.431-21.322,14.431
	c-16.946,13.182,3.764,10.662,3.764,10.662c3.139-4.402,13.168,0.613,13.168,0.613l1.24,13.182
	c-8.119,16.319,10.667,40.781,10.667,40.781c-10.597,11.971-27.613,10.62-27.613,10.62c-43.295-0.632-58.364,85.934-58.364,85.934
	c-12.542,10.03-30.09,59.596-30.09,59.596c-3.15,6.272-14.443,18.19-14.443,18.19c-28.827,10.667-36.993,43.908-36.993,43.908
	c-3.776,5.009-10.679,7.505-10.679,7.505c-29.477-3.121-20.072,18.183-20.072,18.183c-2.502-0.607-66.495,7.552-66.495,7.552
	c-30.739,5.63-107.275-25.098-107.275-25.098c-87.817-54.6-153.059-11.304-153.059-11.304
	c-83.439,48.923-26.35,107.275-26.35,107.275c71.509,72.783,187.563-11.913,187.563-11.913l0.661-1.893
	c20.698-17.558,85.314-35.106,85.314-35.106c4.39-2.513,16.934-0.643,16.934-0.643l48.286-0.62
	c-8.768,20.704,21.334,1.877,21.334,1.877c0,3.133,13.782,1.893,13.782,1.893c1.287,6.886,12.556,1.24,12.556,1.24
	c3.151,3.794,13.83-6.897,13.83-6.897c11.907,3.15,12.531-20.685,12.531-20.685c0.638-3.782,8.143-6.283,8.143-6.283
	c38.279-7.529,49.572-52.706,49.572-52.706c47.684-62.091,51.413-86.553,51.413-86.553c5.039-8.155,10.065,18.201,10.065,18.201
	c-5.027,26.963,15.683,69.626,15.033,84.053c-0.613,14.425-7.504,25.712-7.504,25.712c-6.915,5.021-13.806,16.938-15.069,24.461
	c-1.263,7.54-6.891,13.174-12.532,19.458c-5.641,6.26-3.139,20.073-3.139,20.073s-8.802,7.534-10.041,13.174
	c-1.263,5.653-2.502,11.287-2.502,11.287c-3.15,1.257-18.821,31.365-18.821,31.365c-6.903,9.404-17.57,10.036-17.57,10.036
	c3.162,8.154,10.667,16.32,10.667,16.32c-12.544,10.673-56.452,124.827-56.452,124.827c-37.005-3.758-41.383,106.615-41.383,106.615
	c-4.401,0-31.989,37.005-31.989,37.005c-41.43,3.15-13.806,10.684-13.806,10.684c-17.558,6.266-27.624,63.981-27.624,63.981
	c25.747,68.376,94.743-52.706,94.743-52.706c6.29-8.779,0.614-6.891,25.087-22.573c24.449-15.677,10.018-45.797,10.018-45.797
	c29.5-19.435,27.624-40.763,27.624-40.763c15.671-11.304,60.192-79.674,60.192-79.674c10.679-5.033,53.974-51.438,53.974-51.438
	c8.792,9.411,65.857,0,65.857,0c-4.366,4.402,5.016,30.734,5.016,30.734c4.413,14.443,5.039,43.931,5.039,43.931
	c-8.143,20.061-0.626,67.721-0.626,67.721c-7.517,20.078,22.574,64.6,22.574,64.6c4.389,5.641,8.768,25.712,8.768,25.712
	c-5.016,15.063,47.683,108.526,47.683,108.526c11.93,15.682,15.671,55.206,15.671,55.206c-7.517,5.641-3.115,44.534-3.115,44.534
	c-40.781,37.648-1.251,18.195-1.251,18.195c1.251,6.283-17.594,43.902-17.594,43.902c-30.704,37.017,27.625,32.64,27.625,32.64
	c57.077-9.423,48.935-57.089,48.935-57.089c0.625-6.897,16.932-31.365,16.932-31.365c7.529-13.8-1.899-16.946-1.899-16.946
	c-0.625-10.029-20.698-32.002-20.698-32.002c-6.903-3.746-13.794-21.293-13.794-21.293c-3.138-6.283-5.015-87.209-5.015-87.209
	c0.637-68.995-47.036-111.652-47.036-111.652c2.525-6.915-8.166-33.89-8.166-33.89c-2.478-9.404,5.665-40.781,5.665-40.781
	c26.314-46.434,30.102-130.438,30.102-130.438c4.39-0.638,17.558-15.069,17.558-15.069s11.293,1.924,2.513-0.602
	c-8.791-2.513-9.429-27.601-9.429-27.601c5.653-13.174-1.864-33.246-1.864-33.246c4.39-12.556-8.177-26.344-8.177-26.344
	c0-12.55-14.408-36.374-14.408-36.374c-1.251-26.969-12.556-46.433-12.556-46.433c-5.651-16.94,2.525-57.674,2.525-57.674
	c33.878-21.942,1.251-70.889,1.251-70.889c4.378,0,5.016-6.271,5.016-6.271c5.015,28.219,67.119,89.704,67.119,89.704
	c13.817,11.281,28.851,0.631,28.851,0.631c16.318,5.01-7.529-21.971-7.529-21.971c38.905,37.66,37.654,18.189,37.654,18.189
	c10.644,4.396,8.131-11.906,8.131-11.906C1060.189,340.063,1014.404,299.3,1014.404,299.3z M373.257,476.79
	c9.392-13.794,0.602-45.171,0.602-45.171c5.039,6.272,70.281,18.196,70.281,18.196C430.334,449.816,373.257,476.79,373.257,476.79z"
	/>
</svg>
